<svg 
 xmlns="http://www.w3.org/2000/svg"
 xmlns:xlink="http://www.w3.org/1999/xlink"
 width="302px" height="149px">
<path fill-rule="evenodd"  fill="none"
 d="M-0.003,-0.002 L299.998,-0.002 L299.998,146.998 L-0.003,146.998 L-0.003,-0.002 Z"/>
<path fill-rule="evenodd"  stroke="rgb(127, 127, 127)" stroke-width="4px" stroke-linecap="butt" stroke-linejoin="miter" fill="none"
 d="M51.999,54.000 L248.000,54.000 C249.104,54.000 250.000,54.895 250.000,56.000 L250.000,91.000 C250.000,92.104 249.104,93.000 248.000,93.000 L51.999,93.000 C50.895,93.000 50.000,92.104 50.000,91.000 L50.000,56.000 C50.000,54.895 50.895,54.000 51.999,54.000 Z"/>
<path fill-rule="evenodd"  stroke="rgb(23, 204, 95)" stroke-width="4px" stroke-linecap="butt" stroke-linejoin="miter" fill="none"
 d="M56.000,59.000 L244.000,59.000 C244.552,59.000 245.000,59.448 245.000,60.000 L245.000,87.000 C245.000,87.552 244.552,88.000 244.000,88.000 L56.000,88.000 C55.447,88.000 54.999,87.552 54.999,87.000 L54.999,60.000 C54.999,59.448 55.447,59.000 56.000,59.000 Z"/>
<path fill-rule="evenodd"  stroke="rgb(23, 204, 95)" stroke-width="4px" stroke-linecap="butt" stroke-linejoin="miter" fill="none"
 d="M61.000,64.000 L239.000,64.000 C239.552,64.000 240.000,64.448 240.000,65.000 L240.000,82.000 C240.000,82.552 239.552,83.000 239.000,83.000 L61.000,83.000 C60.447,83.000 60.000,82.552 60.000,82.000 L60.000,65.000 C60.000,64.448 60.447,64.000 61.000,64.000 Z"/>
<path fill-rule="evenodd"  stroke="rgb(23, 204, 95)" stroke-width="4px" stroke-linecap="butt" stroke-linejoin="miter" fill="none"
 d="M65.999,69.000 L233.999,69.000 C234.552,69.000 234.999,69.448 234.999,70.000 L234.999,77.000 C234.999,77.552 234.552,78.000 233.999,78.000 L65.999,78.000 C65.447,78.000 64.999,77.552 64.999,77.000 L64.999,70.000 C64.999,69.448 65.447,69.000 65.999,69.000 Z"/>
</svg>
