<svg 
 xmlns="http://www.w3.org/2000/svg"
 xmlns:xlink="http://www.w3.org/1999/xlink"
 width="303px" height="150px">
<path fill-rule="evenodd"  fill="none"
 d="M-0.001,-0.000 L299.999,-0.000 L299.999,147.000 L-0.001,147.000 L-0.001,-0.000 Z"/>
<path fill-rule="evenodd"  stroke="rgb(23, 204, 95)" stroke-width="6px" stroke-linecap="round" stroke-linejoin="miter" fill="none"
 d="M198.999,57.000 C198.999,57.000 198.999,77.648 198.999,93.997 C198.999,108.002 193.013,114.000 178.990,114.000 C155.731,114.000 109.999,114.000 109.999,114.000 "/>
<path fill-rule="evenodd"  fill="rgb(183, 183, 183)"
 d="M170.017,15.591 C170.017,15.591 169.974,41.750 170.017,42.315 C170.061,42.881 170.774,44.453 173.152,46.753 C175.530,49.054 194.181,69.509 194.469,69.829 C194.758,70.149 195.052,70.714 196.037,70.716 C197.021,70.719 197.857,69.919 198.546,69.237 C199.234,68.555 220.030,45.869 220.803,44.978 C221.577,44.088 222.364,42.683 222.371,40.245 C222.377,37.807 222.371,15.591 222.371,15.591 L170.017,15.591 Z"/>
<path fill-rule="evenodd"  fill="rgb(207, 207, 207)"
 d="M172.839,46.162 C172.839,46.162 174.320,47.912 177.227,49.120 C181.855,51.043 189.665,52.695 197.605,52.078 C210.533,51.074 218.609,48.529 218.609,48.529 L197.292,71.012 L194.156,70.716 L172.525,46.753 L172.839,46.162 Z"/>
<path fill-rule="evenodd"  fill="rgb(127, 127, 127)"
 d="M212.339,14.999 L212.339,49.712 L196.978,71.012 L197.605,71.012 C197.605,71.012 221.974,44.264 222.684,42.907 C223.395,41.551 222.684,14.999 222.684,14.999 L212.339,14.999 Z"/>
<path fill-rule="evenodd"  fill="rgb(249, 249, 249)"
 d="M176.913,15.591 L176.913,48.824 L195.724,70.716 L189.140,51.783 L189.454,15.296 L176.913,15.591 Z"/>
<path fill-rule="evenodd"  fill="rgb(255, 255, 255)"
 d="M96.139,102.598 L77.852,102.598 C77.379,102.598 76.995,102.240 76.995,101.798 C76.995,101.356 77.379,100.998 77.852,100.998 L96.139,100.998 C96.612,100.998 96.996,101.356 96.996,101.798 C96.996,102.240 96.612,102.598 96.139,102.598 ZM89.246,114.832 C89.583,114.529 90.118,114.533 90.449,114.842 C90.779,115.151 90.782,115.650 90.459,115.964 L87.604,118.627 C87.524,118.702 87.428,118.762 87.321,118.803 C87.234,118.837 87.142,118.849 87.050,118.854 C87.031,118.855 87.014,118.865 86.995,118.865 C86.974,118.865 86.956,118.855 86.936,118.853 C86.845,118.847 86.754,118.836 86.669,118.803 C86.562,118.762 86.467,118.702 86.387,118.627 L83.531,115.964 C83.218,115.648 83.228,115.157 83.554,114.853 C83.880,114.548 84.406,114.539 84.743,114.833 L86.138,116.134 L86.138,105.863 L84.743,107.165 C84.407,107.468 83.873,107.463 83.542,107.154 C83.212,106.846 83.206,106.347 83.531,106.033 L86.390,103.366 C86.724,103.054 87.266,103.054 87.601,103.366 L90.459,106.033 C90.772,106.348 90.764,106.839 90.436,107.144 C90.110,107.448 89.583,107.457 89.246,107.164 L87.853,105.864 L87.853,116.132 L89.246,114.832 ZM77.852,119.399 L96.139,119.399 C96.612,119.399 96.996,119.756 96.996,120.198 C96.996,120.640 96.612,120.998 96.139,120.998 L77.852,120.998 C77.379,120.998 76.995,120.640 76.995,120.198 C76.995,119.756 77.379,119.399 77.852,119.399 Z"/>
<text kerning="auto" font-family="Adobe Heiti Std" fill="rgb(0, 0, 0)" font-size="18px" x="82px" y="91.1460000000002px"><tspan font-size="18px" font-family="Source Han Sans CN" font-weight="bold" fill="#17CC5F">&#48;</tspan></text>
</svg>
