<svg 
 xmlns="http://www.w3.org/2000/svg"
 xmlns:xlink="http://www.w3.org/1999/xlink"
 width="18px" height="18px">
<path fill-rule="evenodd"  fill="none"
 d="M-0.000,-0.000 L18.000,-0.000 L18.000,18.000 L-0.000,18.000 L-0.000,-0.000 Z"/>
<path fill-rule="evenodd"  fill="#ffffff"
 d="M17.828,4.109 L15.952,4.628 L15.371,6.437 C15.340,6.533 15.249,6.598 15.147,6.599 C15.044,6.599 14.953,6.535 14.921,6.439 L14.308,4.602 L12.449,4.022 C12.352,3.991 12.285,3.902 12.285,3.802 C12.284,3.701 12.349,3.612 12.445,3.579 L14.283,2.970 L14.864,1.162 C14.903,1.039 15.036,0.971 15.161,1.010 C15.233,1.032 15.290,1.088 15.314,1.159 L15.927,2.996 L17.842,3.665 C17.939,3.698 18.003,3.790 18.000,3.892 C17.997,3.993 17.927,4.081 17.828,4.109 ZM12.353,16.466 C12.116,16.803 11.718,16.987 11.310,16.948 C10.901,16.910 10.544,16.656 10.373,16.281 L9.003,13.282 L3.446,13.282 C3.426,13.282 3.407,13.272 3.386,13.271 L2.216,16.227 C1.982,16.819 1.314,17.109 0.724,16.873 C0.135,16.637 -0.153,15.965 0.082,15.372 L4.847,3.329 C5.220,2.384 6.536,2.351 6.958,3.273 L12.459,15.317 C12.631,15.692 12.590,16.130 12.353,16.466 ZM5.991,6.688 L4.295,10.972 L7.948,10.972 L5.991,6.688 ZM15.215,8.200 C15.849,8.200 16.364,8.717 16.364,9.355 L16.364,15.845 C16.364,16.483 15.849,17.000 15.215,17.000 C14.581,17.000 14.067,16.483 14.067,15.845 L14.067,9.355 C14.067,8.717 14.581,8.200 15.215,8.200 Z"/>
</svg>
